<svg xmlns="http://www.w3.org/2000/svg" width="1em" height="1em" fill="none"
    data-icon-name="rfid-high" viewBox="0 0 20 20" class="sw-amiga-icon sw-amiga-icon--monochrome"
    style="margin: 0px 0px;">
    <path fill="#000"
        d="M14.455 14.455A6.28 6.28 0 0 0 16.3 10a6.28 6.28 0 0 0-1.845-4.455l.636-.636a7.2 7.2 0 0 1 0 10.182l-.636-.636ZM5.545 14.455l-.636.636a7.2 7.2 0 0 1 0-10.182l.636.636A6.28 6.28 0 0 0 3.7 10a6.28 6.28 0 0 0 1.845 4.455Z"></path>
    <path fill="#000"
        d="M14.5 10a4.486 4.486 0 0 1-1.318 3.182l.636.636a5.399 5.399 0 0 0 0-7.637l-.636.637A4.486 4.486 0 0 1 14.5 10ZM5.5 10c0-1.243.504-2.368 1.318-3.182l-.636-.636a5.4 5.4 0 0 0 0 7.636l.636-.636A4.486 4.486 0 0 1 5.5 10Z"></path>
    <path fill="#000"
        d="M11.91 11.909c.488-.489.79-1.164.79-1.91 0-.745-.302-1.42-.79-1.908l.636-.637a3.601 3.601 0 0 1 0 5.092l-.637-.637ZM8.09 11.91l-.635.636a3.6 3.6 0 0 1 0-5.092l.636.637A2.692 2.692 0 0 0 7.3 10c-.001.745.301 1.42.79 1.91Z"></path>
    <path fill="#000" fill-rule="evenodd"
        d="M12 10a2 2 0 1 1-4 0 2 2 0 0 1 4 0Zm-1 0a1 1 0 1 1-2 0 1 1 0 0 1 2 0Z"
        clip-rule="evenodd"></path>
</svg>